<svg version="1.1" xmlns="http://www.w3.org/2000/svg" width="1024" height="1024"
    viewBox="0 0 1024 1024">
    <path fill="#000"
        d="M505.682 156.731c-2.497 0.953-5.484 2.496-6.547 3.459s-13.318 11.559-27.142 23.574c-33.82 29.544-69.781 60.867-121.925 106.357-82.033 71.571-116.087 101.331-148.832 129.79-17.985 15.725-37.034 32.412-42.391 36.935-5.248 4.629-31.913 27.981-59.168 51.79-28.572 24.906-49.309 43.825-48.709 44.414s3.46 0 6.547-1.317c24.639-10.585 83.007-24.758 136.575-33.345 96.093-15.372 192.302-22.025 317.91-22.025s221.817 6.654 317.91 22.025c53.574 8.574 111.935 22.763 136.575 33.345 3.101 1.317 5.956 1.906 6.547 1.317s-20.129-19.52-48.709-44.414c-27.263-23.815-53.938-47.166-59.168-51.79-5.366-4.521-24.403-21.209-42.391-36.935-32.738-28.453-66.794-58.223-148.832-129.79-23.932-20.974-55.358-48.227-69.663-60.867-14.398-12.507-38.222-33.345-52.975-46.203-14.777-12.846-28.1-24.168-29.771-24.994-5.007-2.615-10.966-3.101-15.843-1.318z"></path>
    <path fill="#000"
        d="M426.507 505.277c-209.209 7.274-377.46 41.088-416.616 83.601-6.547 7.155-9.888 13.936-9.888 20.128v5.129l3.459-5.956c16.070-27.628 81.428-52.159 185.737-69.663 95.011-15.961 195.749-23.117 322.803-23.117 82.745 0 136.693 2.142 204.805 8.216 148.949 13.347 260.978 41.446 295.639 74.303 2.615 2.378 6.192 6.912 8.099 10.241l3.459 5.956v-5.129c0-26.694-50.833-52.885-140.271-72.159-78.814-17.043-175.142-27.638-290.168-31.686-37.486-1.318-128.595-1.318-167.044 0.118z"></path>
    <path fill="#000"
        d="M446.498 523.754c-68.346 2.142-135.506 6.912-191.104 13.7-30.832 3.696-66.439 9.269-67.757 10.585-0.831 0.831 9.298 11.558 29.771 31.926 49.074 48.69 83.954 76.804 130.265 104.78 13.229 7.98 45.378 24.051 52.385 26.193 7.391 2.378 106.805 3.814 165.749 2.497 31.795-0.709 55.619-1.671 58.116-2.497 7.008-2.142 39.156-18.212 52.385-26.193 46.312-27.981 81.192-56.091 130.265-104.78 20.473-20.372 30.596-31.098 29.771-31.926-1.435-1.435-38.939-7.125-73.115-11.175-42.272-5.007-86.912-8.574-141.087-11.44-22.399-1.196-151.475-2.378-175.641-1.671z"></path>
    <path fill="#000"
        d="M161.934 551.853c-6.192 1.196-11.559 2.858-12.030 3.459-0.953 1.671-4.402 28.572-6.31 51.098-6.654 75.263-0.119 135.878 20.372 188.145 4.403 11.086 4.167 10.966 12.020 8.216 6.31-2.142 31.098-13.819 34.527-16.318 1.196-0.831 0.119-4.512-4.983-17.013-18.223-44.899-29.544-90.146-34.527-138.263-2.378-22.379-3.814-65.25-2.261-65.25 0.59 0 3.223 3.101 5.839 6.791 39.038 57.75 93.344 113.724 143.348 148.134 10.005 6.912 35.007 22.035 46.439 28.1 31.074 16.683 72.504 30.263 107.739 35.618 19.893 2.958 59.894 2.958 79.786 0 35.25-5.366 76.671-18.948 107.739-35.618 11.44-6.061 36.434-21.182 46.439-28.1 50.006-34.409 104.309-90.385 143.348-148.134 2.615-3.695 5.248-6.791 5.839-6.791 1.553 0 0.118 42.872-2.261 65.25-4.983 48.111-16.305 93.37-34.527 138.263-5.1 12.507-6.182 16.187-4.983 17.013 3.459 2.496 28.217 14.173 34.527 16.318 7.844 2.736 7.601 2.858 12.020-8.216 20.493-52.267 27.020-112.885 20.372-188.145-1.906-22.521-5.366-49.426-6.31-51.098-0.472-0.59-6.547-2.261-13.465-3.696l-12.846-2.496-7.391 8.099c-34.409 37.277-75.384 75.020-109.317 100.519-14.398 10.821-44.994 30.952-59.168 39.061-23.932 13.56-51.79 25.48-79.521 34.056-29.308 8.939-48.227 11.795-80.377 11.795-38.817 0-64.534-5.007-106.098-20.615-69.663-25.957-147.992-84.19-222.181-164.816-4.049-4.402-8.099-7.981-8.914-7.863-0.831 0-6.669 1.196-12.872 2.497z"></path>
    <path fill="#000"
        d="M116.674 561.858c-51.186 13.228-85.36 27.745-100.378 42.75-2.84 2.858-5.939 6.791-6.772 8.818-1.196 2.98-2.142 3.695-4.885 3.695h-3.578l2.025 3.814c5.129 9.871 22.261 22.261 44.522 32.384 13.937 6.31 44.534 16.305 66.676 21.907l18.466 4.642 0.709-32.858c0.472-18.104 1.435-38.458 2.142-45.378 1.906-17.868 4.885-42.036 5.484-43.825 0.709-2.142-1.554-1.788-24.426 4.049z"></path>
    <path fill="#000"
        d="M882.879 557.808c0.59 1.789 3.578 25.957 5.484 43.825 0.709 6.912 1.671 27.263 2.142 45.378l0.709 32.858 18.466-4.642c22.143-5.603 52.739-15.588 66.676-21.907 22.261-10.123 39.392-22.521 44.522-32.384l2.025-3.814h-3.578c-2.736 0-3.695-0.709-4.885-3.695-5.455-12.994-32.502-28.719-71.422-41.328-13.583-4.402-56.209-15.725-59.315-15.725-0.709 0-1.074 0.709-0.831 1.435z"></path>
</svg>